<?xml version="1.0" encoding="UTF-8" standalone="no"?>
<!-- Created with Inkscape (http://www.inkscape.org/) -->

<svg
   width="210mm"
   height="297mm"
   viewBox="0 0 210 297"
   version="1.1"
   id="svg1"
   inkscape:version="1.3 (0e150ed6c4, 2023-07-21)"
   sodipodi:docname="Tetrahedral_Configuration.svg"
   inkscape:export-filename="Tetrahedral_Configuration.pdf"
   inkscape:export-xdpi="96"
   inkscape:export-ydpi="96"
   xmlns:inkscape="http://www.inkscape.org/namespaces/inkscape"
   xmlns:sodipodi="http://sodipodi.sourceforge.net/DTD/sodipodi-0.dtd"
   xmlns="http://www.w3.org/2000/svg"
   xmlns:svg="http://www.w3.org/2000/svg">
  <sodipodi:namedview
     id="namedview1"
     pagecolor="#505050"
     bordercolor="#eeeeee"
     borderopacity="1"
     inkscape:showpageshadow="0"
     inkscape:pageopacity="0"
     inkscape:pagecheckerboard="0"
     inkscape:deskcolor="#505050"
     inkscape:document-units="mm"
     inkscape:zoom="4.3389452"
     inkscape:cx="216.06634"
     inkscape:cy="220.67575"
     inkscape:window-width="2560"
     inkscape:window-height="1369"
     inkscape:window-x="1912"
     inkscape:window-y="-8"
     inkscape:window-maximized="1"
     inkscape:current-layer="g1" />
  <defs
     id="defs1">
    <marker
       style="overflow:visible"
       id="marker19"
       refX="0"
       refY="0"
       orient="auto-start-reverse"
       inkscape:stockid="Dart arrow"
       markerWidth="1"
       markerHeight="1"
       viewBox="0 0 1 1"
       inkscape:isstock="true"
       inkscape:collect="always"
       preserveAspectRatio="xMidYMid">
      <path
         style="fill:context-stroke;fill-rule:evenodd;stroke:none"
         d="M 0,0 5,-5 -12.5,0 5,5 Z"
         transform="scale(-0.5)"
         id="path19" />
    </marker>
    <marker
       style="overflow:visible"
       id="marker17"
       refX="0"
       refY="0"
       orient="auto-start-reverse"
       inkscape:stockid="Dart arrow"
       markerWidth="1"
       markerHeight="1"
       viewBox="0 0 1 1"
       inkscape:isstock="true"
       inkscape:collect="always"
       preserveAspectRatio="xMidYMid">
      <path
         style="fill:context-stroke;fill-rule:evenodd;stroke:none"
         d="M 0,0 5,-5 -12.5,0 5,5 Z"
         transform="scale(-0.5)"
         id="path17" />
    </marker>
    <rect
       x="631.00991"
       y="-27.378529"
       width="707.27867"
       height="668.81836"
       id="rect10" />
    <inkscape:path-effect
       effect="powerstroke"
       id="path-effect42"
       is_visible="true"
       lpeversion="1.3"
       scale_width="1"
       interpolator_type="CentripetalCatmullRom"
       interpolator_beta="0.75"
       start_linecap_type="round"
       end_linecap_type="round"
       offset_points="7.5705507,0.43118467"
       linejoin_type="spiro"
       miter_limit="4"
       not_jump="true"
       sort_points="true"
       message="&lt;b&gt;Ctrl + click&lt;/b&gt; on existing node and move it" />
    <inkscape:path-effect
       effect="simplify"
       id="path-effect41"
       is_visible="true"
       lpeversion="1.3"
       threshold="0.012"
       steps="1"
       smooth_angles="0"
       helper_size="0"
       simplify_individual_paths="false"
       simplify_just_coalesce="false"
       step="1" />
    <linearGradient
       id="swatch29"
       inkscape:swatch="solid">
      <stop
         style="stop-color:#000000;stop-opacity:1;"
         offset="0"
         id="stop29" />
    </linearGradient>
    <marker
       style="overflow:visible"
       id="marker19-1-5"
       refX="0"
       refY="0"
       orient="auto-start-reverse"
       inkscape:stockid="Dart arrow"
       markerWidth="1"
       markerHeight="1"
       viewBox="0 0 1 1"
       inkscape:isstock="true"
       inkscape:collect="always"
       preserveAspectRatio="xMidYMid">
      <path
         style="fill:context-stroke;fill-rule:evenodd;stroke:none"
         d="M 0,0 5,-5 -12.5,0 5,5 Z"
         transform="scale(-0.5)"
         id="path19-9-9" />
    </marker>
    <marker
       style="overflow:visible"
       id="marker19-1-4-1"
       refX="0"
       refY="0"
       orient="auto-start-reverse"
       inkscape:stockid="Dart arrow"
       markerWidth="1"
       markerHeight="1"
       viewBox="0 0 1 1"
       inkscape:isstock="true"
       inkscape:collect="always"
       preserveAspectRatio="xMidYMid">
      <path
         style="fill:context-stroke;fill-rule:evenodd;stroke:none"
         d="M 0,0 5,-5 -12.5,0 5,5 Z"
         transform="scale(-0.5)"
         id="path19-9-5-5" />
    </marker>
    <marker
       style="overflow:visible"
       id="marker19-1-9-0"
       refX="0"
       refY="0"
       orient="auto-start-reverse"
       inkscape:stockid="Dart arrow"
       markerWidth="1"
       markerHeight="1"
       viewBox="0 0 1 1"
       inkscape:isstock="true"
       inkscape:collect="always"
       preserveAspectRatio="xMidYMid">
      <path
         style="fill:context-stroke;fill-rule:evenodd;stroke:none"
         d="M 0,0 5,-5 -12.5,0 5,5 Z"
         transform="scale(-0.5)"
         id="path19-9-8-2" />
    </marker>
    <marker
       style="overflow:visible"
       id="marker19-1-0-7"
       refX="0"
       refY="0"
       orient="auto-start-reverse"
       inkscape:stockid="Dart arrow"
       markerWidth="1"
       markerHeight="1"
       viewBox="0 0 1 1"
       inkscape:isstock="true"
       inkscape:collect="always"
       preserveAspectRatio="xMidYMid">
      <path
         style="fill:context-stroke;fill-rule:evenodd;stroke:none"
         d="M 0,0 5,-5 -12.5,0 5,5 Z"
         transform="scale(-0.5)"
         id="path19-9-1-7" />
    </marker>
    <marker
       style="overflow:visible"
       id="marker20-6"
       refX="0"
       refY="0"
       orient="auto-start-reverse"
       inkscape:stockid="Dart arrow"
       markerWidth="1"
       markerHeight="1"
       viewBox="0 0 1 1"
       inkscape:isstock="true"
       inkscape:collect="always"
       preserveAspectRatio="xMidYMid">
      <path
         style="fill:context-stroke;fill-rule:evenodd;stroke:none"
         d="M 0,0 5,-5 -12.5,0 5,5 Z"
         transform="scale(-0.5)"
         id="path20-6" />
    </marker>
  </defs>
  <g
     inkscape:label="Lag 1"
     inkscape:groupmode="layer"
     id="layer1">
    <path
       style="fill:#000000;fill-opacity:0;stroke:#000000;stroke-width:0.3;stroke-dasharray:none;stroke-dashoffset:0;marker-end:url(#marker19)"
       d="m 58.947888,60.488646 38.51348,20.569876"
       id="path6"
       sodipodi:nodetypes="cc" />
    <path
       style="fill:#000000;fill-opacity:0;stroke:#1010bc;stroke-width:0.3;stroke-dasharray:none;stroke-dashoffset:0;stroke-opacity:1;marker-end:url(#marker19-1-5)"
       d="m 72.874468,52.103626 1.20344,-0.710615"
       id="path6-0-3"
       sodipodi:nodetypes="cc" />
    <path
       style="fill:#000000;fill-opacity:0;stroke:#1010bc;stroke-width:0.3;stroke-dasharray:none;stroke-dashoffset:0;stroke-opacity:1"
       d="m 58.710378,60.491647 -26.48563,9.798992"
       id="path6-0-7"
       sodipodi:nodetypes="cc" />
    <path
       style="fill:#000000;fill-opacity:0;stroke:#1212d1;stroke-width:0.3;stroke-dasharray:none;stroke-dashoffset:0;stroke-opacity:1"
       d="m 58.673748,60.451685 13.25706,18.972109"
       id="path6-0-0"
       sodipodi:nodetypes="cc" />
    <path
       style="fill:#000000;fill-opacity:0;stroke:#1212d1;stroke-width:0.3;stroke-dasharray:none;stroke-dashoffset:0;stroke-opacity:1;marker-end:url(#marker19-1-4-1)"
       d="m 73.365628,81.446522 2.00649,2.84324"
       id="path6-0-0-2"
       sodipodi:nodetypes="cc" />
    <path
       style="fill:#000000;fill-opacity:0;stroke:#000000;stroke-width:0.3;stroke-dasharray:none;stroke-dashoffset:0;marker-end:url(#marker17)"
       d="M 58.701968,60.405537 24.813782,86.685572"
       id="path13"
       sodipodi:nodetypes="cc" />
    <text
       xml:space="preserve"
       style="font-style:italic;font-variant:normal;font-weight:normal;font-stretch:normal;font-size:4.93889px;font-family:'Times New Roman';-inkscape-font-specification:'Times New Roman,  Italic';opacity:1;fill:#000000;fill-opacity:1;stroke:#000000;stroke-width:0;stroke-dasharray:none;stroke-dashoffset:0;stroke-opacity:1"
       x="100.40775"
       y="84.483505"
       id="text33"><tspan
         sodipodi:role="line"
         id="tspan33"
         style="font-style:italic;font-variant:normal;font-weight:normal;font-stretch:normal;font-size:4.93889px;font-family:Calibri;-inkscape-font-specification:'Calibri Italic';stroke-width:0"
         x="100.40775"
         y="84.483505"><tspan
   style="font-size:65%;baseline-shift:super"
   id="tspan1">c</tspan>x</tspan></text>
    <text
       xml:space="preserve"
       style="font-style:italic;font-variant:normal;font-weight:normal;font-stretch:normal;font-size:4.93889px;font-family:'Times New Roman';-inkscape-font-specification:'Times New Roman,  Italic';opacity:1;fill:#000000;fill-opacity:1;stroke:#000000;stroke-width:0;stroke-dasharray:none;stroke-dashoffset:0;stroke-opacity:1"
       x="19.175329"
       y="90.458641"
       id="text35"><tspan
         sodipodi:role="line"
         id="tspan35"
         style="font-style:italic;font-variant:normal;font-weight:normal;font-stretch:normal;font-size:4.93889px;font-family:Calibri;-inkscape-font-specification:'Calibri Italic';stroke-width:0"
         x="19.175329"
         y="90.458641"><tspan
   style="font-size:65%;baseline-shift:super"
   id="tspan2">c</tspan>y</tspan></text>
    <text
       xml:space="preserve"
       style="font-style:italic;font-variant:normal;font-weight:normal;font-stretch:normal;font-size:4.93889px;font-family:'Times New Roman';-inkscape-font-specification:'Times New Roman,  Italic';fill:#000000;fill-opacity:1;stroke:#000000;stroke-width:0;stroke-dasharray:none;stroke-dashoffset:0;stroke-opacity:1"
       x="48.043079"
       y="56.887459"
       id="text35-6"><tspan
         sodipodi:role="line"
         id="tspan35-4"
         style="font-style:italic;font-variant:normal;font-weight:normal;font-stretch:normal;font-size:4.93889px;font-family:Calibri;-inkscape-font-specification:'Calibri Italic';stroke-width:0"
         x="0"
         y="0"><tspan
           style="font-size:65%;baseline-shift:super"
           id="tspan2-4" /></tspan></text>
    <g
       id="g1"
       transform="translate(32.391398,-46.83373)">
      <text
         xml:space="preserve"
         style="font-style:italic;font-variant:normal;font-weight:normal;font-stretch:normal;font-size:3.52778px;font-family:'Times New Roman';-inkscape-font-specification:'Times New Roman,  Italic';opacity:1;fill:#000000;fill-opacity:1;stroke:#000000;stroke-width:0;stroke-dasharray:none;stroke-dashoffset:0;stroke-opacity:1"
         x="19.207968"
         y="104.09824"
         id="text35-0"><tspan
           sodipodi:role="line"
           id="tspan35-3"
           style="font-style:italic;font-variant:normal;font-weight:normal;font-stretch:normal;font-size:3.52778px;font-family:'Times New Roman';-inkscape-font-specification:'Times New Roman,  Italic';stroke-width:0"
           x="19.207968"
           y="104.09824">β</tspan></text>
      <text
         xml:space="preserve"
         style="font-style:italic;font-variant:normal;font-weight:normal;font-stretch:normal;font-size:3.52778px;font-family:'Times New Roman';-inkscape-font-specification:'Times New Roman,  Italic';fill:#000000;fill-opacity:1;stroke:#000000;stroke-width:0;stroke-dasharray:none;stroke-dashoffset:0;stroke-opacity:1"
         x="25.559418"
         y="113.92962"
         id="text35-0-2"><tspan
           sodipodi:role="line"
           id="tspan35-3-9"
           style="font-style:italic;font-variant:normal;font-weight:normal;font-stretch:normal;font-size:3.52778px;font-family:'Times New Roman';-inkscape-font-specification:'Times New Roman,  Italic';stroke-width:0"
           x="25.559418"
           y="113.92962">α</tspan></text>
    </g>
    <text
       xml:space="preserve"
       style="font-style:italic;font-variant:normal;font-weight:normal;font-stretch:normal;font-size:4.93889px;font-family:'Times New Roman';-inkscape-font-specification:'Times New Roman,  Italic';fill:#000000;fill-opacity:1;stroke:#000000;stroke-width:0;stroke-dasharray:none;stroke-dashoffset:0;stroke-opacity:1"
       x="57.318203"
       y="12.007433"
       id="text35-2"><tspan
         sodipodi:role="line"
         id="tspan35-8"
         style="font-style:italic;font-variant:normal;font-weight:normal;font-stretch:normal;font-size:4.93889px;font-family:Calibri;-inkscape-font-specification:'Calibri Italic';stroke-width:0"
         x="57.318203"
         y="12.007433"><tspan
   style="font-size:65%;baseline-shift:super"
   id="tspan4">c</tspan>z</tspan></text>
    <path
       style="fill:#000000;fill-opacity:0;stroke:#000000;stroke-width:0.3;stroke-dasharray:none;stroke-dashoffset:0"
       d="m 58.746858,60.372735 0.046,-25.088618"
       id="path15"
       sodipodi:nodetypes="cc" />
    <path
       style="fill:#000000;fill-opacity:0;stroke:#000000;stroke-width:0.3;stroke-dasharray:none;stroke-dashoffset:0;marker-end:url(#marker20-6)"
       d="m 58.793338,33.074329 0.0403,-18.555282"
       id="path15-5"
       sodipodi:nodetypes="cc" />
    <path
       d="m 53.963326,72.783462 c 0.363966,0.01774 0.767595,0.04263 1.269147,0.07951 0.607273,0.04466 0.999012,0.07884 1.736652,0.137078 0.428969,0.03387 0.93567,0.07233 1.447953,0.102716 0.376575,0.02233 0.79275,0.04256 1.226343,0.05373 0.360245,0.0093 0.748949,0.01275 1.15389,0.0047 0.01237,-2.58e-4 0.02495,-5.2e-4 0.03813,-7.96e-4 0.01283,-2.89e-4 0.0254,-5.74e-4 0.03851,-8.71e-4 0.0078,-1.9e-4 0.01497,-3.65e-4 0.02231,-5.44e-4 0.0052,-1.27e-4 0.01062,-2.59e-4 0.01621,-3.96e-4 0.01254,-3.28e-4 0.02513,-6.59e-4 0.03852,-0.001 0.01273,-3.56e-4 0.02532,-7.09e-4 0.03852,-0.0011 0.01286,-3.83e-4 0.02544,-7.6e-4 0.03852,-0.0012 0.01295,-4.1e-4 0.02553,-8.09e-4 0.03853,-0.0012 0.01301,-4.37e-4 0.02559,-8.59e-4 0.03853,-0.0013 0.01306,-4.63e-4 0.02564,-9.1e-4 0.03853,-0.0014 0.01311,-4.89e-4 0.02568,-9.6e-4 0.03853,-0.0014 0.01314,-5.16e-4 0.02572,-0.001 0.03854,-0.0015 0.01317,-5.43e-4 0.02574,-0.0011 0.03854,-0.0016 0.0132,-5.69e-4 0.02577,-0.0011 0.03854,-0.0017 0.01322,-5.96e-4 0.02579,-0.0012 0.03854,-0.0017 0.01324,-6.23e-4 0.02581,-0.0012 0.03854,-0.0018 0.01326,-6.5e-4 0.02582,-0.0013 0.03855,-0.0019 0.01328,-6.78e-4 0.02584,-0.0013 0.03855,-0.002 0.01329,-7.06e-4 0.02585,-0.0014 0.03855,-0.002 0.0133,-7.34e-4 0.02586,-0.0014 0.03855,-0.0021 0.01332,-7.61e-4 0.02587,-0.0015 0.03855,-0.0022 0.01333,-7.9e-4 0.02589,-0.0015 0.03856,-0.0023 0.01334,-8.19e-4 0.0259,-0.0016 0.03856,-0.0024 0.01335,-8.47e-4 0.0259,-0.0016 0.03856,-0.0024 0.01336,-8.77e-4 0.02591,-0.0017 0.03856,-0.0025 0.01337,-9.06e-4 0.02592,-0.0018 0.03856,-0.0026 0.01338,-9.35e-4 0.02593,-0.0018 0.03856,-0.0027 0.01339,-9.65e-4 0.02594,-0.0019 0.03856,-0.0028 0.0134,-9.94e-4 0.02594,-0.0019 0.03856,-0.0029 0.01341,-0.001 0.02595,-0.002 0.03857,-0.0029 0.01342,-0.0011 0.02596,-0.002 0.03856,-0.003 0.01342,-0.0011 0.02596,-0.0021 0.03857,-0.0031 0.01343,-0.0011 0.02597,-0.0022 0.03857,-0.0032 0.01344,-0.0011 0.02598,-0.0022 0.03857,-0.0033 0.01345,-0.0012 0.02598,-0.0023 0.03857,-0.0034 0.01346,-0.0012 0.02598,-0.0023 0.03857,-0.0035 0.01346,-0.0012 0.02599,-0.0024 0.03857,-0.0036 0.01347,-0.0013 0.026,-0.0025 0.03857,-0.0037 0.01348,-0.0013 0.026,-0.0025 0.03857,-0.0037 0.01348,-0.0013 0.026,-0.0026 0.03857,-0.0038 0.01349,-0.0014 0.02601,-0.0026 0.03857,-0.0039 0.01349,-0.0014 0.02601,-0.0027 0.03857,-0.004 0.0135,-0.0014 0.02602,-0.0028 0.03857,-0.0041 0.01351,-0.0015 0.02602,-0.0028 0.03857,-0.0042 0.01351,-0.0015 0.02602,-0.0029 0.03857,-0.0043 0.01352,-0.0015 0.02603,-0.003 0.03857,-0.0044 0.01352,-0.0016 0.02603,-0.003 0.03857,-0.0045 0.01353,-0.0016 0.02604,-0.0031 0.03857,-0.0046 0.01354,-0.0016 0.02604,-0.0032 0.03857,-0.0047 0.01354,-0.0017 0.02604,-0.0032 0.03857,-0.0048 0.01355,-0.0017 0.02604,-0.0033 0.03857,-0.0049 0.01355,-0.0017 0.02605,-0.0034 0.03857,-0.005 0.01356,-0.0018 0.02605,-0.0034 0.03857,-0.0051 0.01356,-0.0018 0.02605,-0.0035 0.03857,-0.0052 0.01356,-0.0019 0.02605,-0.0036 0.03856,-0.0053 0.01357,-0.0019 0.02606,-0.0036 0.03856,-0.0054 0.01357,-0.0019 0.02606,-0.0037 0.03856,-0.0055 0.01358,-0.002 0.02606,-0.0038 0.03856,-0.0056 0.01358,-0.002 0.02607,-0.0038 0.03856,-0.0057 0.01359,-0.002 0.02607,-0.0039 0.03856,-0.0058 0.01359,-0.0021 0.02607,-0.004 0.03856,-0.0059 0.0136,-0.0021 0.02607,-0.0041 0.03855,-0.006 0.0136,-0.0022 0.02607,-0.0041 0.03855,-0.0061 0.01361,-0.0022 0.02608,-0.0042 0.03855,-0.0062 0.01361,-0.0022 0.02608,-0.0043 0.03855,-0.0063 0.01362,-0.0023 0.02608,-0.0043 0.03855,-0.0064 0.01362,-0.0023 0.02608,-0.0044 0.03854,-0.0065 0.01362,-0.0023 0.02608,-0.0045 0.03854,-0.0066 0.01363,-0.0024 0.02608,-0.0046 0.03854,-0.0067 0.01363,-0.0024 0.02608,-0.0046 0.03854,-0.0069 0.01364,-0.0025 0.02608,-0.0047 0.03853,-0.007 0.01364,-0.0025 0.02609,-0.0048 0.03853,-0.0071 0.01364,-0.0025 0.02609,-0.0049 0.03853,-0.0072 0.01365,-0.0026 0.02609,-0.0049 0.03853,-0.0073 0.01365,-0.0026 0.02609,-0.005 0.03852,-0.0074 0.01365,-0.0027 0.02609,-0.0051 0.03852,-0.0075 0.03602,-0.0071 0.0657,-0.01313 0.09658,-0.019 0.134273,-0.02567 0.270009,-0.0476 0.407573,-0.06708 0.15951,-0.0226 0.320759,-0.04184 0.484827,-0.06017 0.227866,-0.02548 0.468775,-0.05002 0.704772,-0.07901 0.157204,-0.01931 0.316173,-0.04104 0.475768,-0.06723 0.144769,-0.02375 0.29023,-0.0512 0.435631,-0.0837 0.135444,-0.03026 0.270684,-0.06486 0.405102,-0.104573 0.06856,-0.02024 0.136646,-0.04178 0.204136,-0.06451 0.03063,-0.01029 0.06382,-0.02159 0.09775,-0.03379 0.01997,-0.0072 0.04716,-0.01713 0.07598,-0.02919 0.0103,-0.0044 0.03522,-0.01483 0.06292,-0.02996 0.0052,-0.0029 0.04963,-0.02628 0.09361,-0.06663 0.05967,-0.05474 0.119373,-0.111595 0.158875,-0.182281 0.0395,-0.07069 0.05686,-0.154744 0.04148,-0.234246 -0.01538,-0.0795 -0.06281,-0.151024 -0.125772,-0.201939 -0.06297,-0.05091 -0.139501,-0.08154 -0.215221,-0.110233 -0.04291,-0.01626 -0.08089,-0.02259 -0.08191,-0.02278 -0.02936,-0.0052 -0.04065,-0.0063 -0.0379,-0.0059 -0.0024,-3.56e-4 0.0085,6.51e-4 0.03129,0.007 0.01199,0.0034 0.04143,0.01212 0.07669,0.03101 0.04478,0.02399 0.08965,0.04874 0.128038,0.08201 0.03839,0.03327 0.06982,0.07504 0.08823,0.122379 0.01842,0.04734 0.0235,0.09935 0.01786,0.149831 -0.0056,0.05048 -0.02162,0.09916 -0.03802,0.147233 -0.02243,0.06575 -0.05614,0.108012 -0.06361,0.11744 -0.02529,0.03135 -0.04084,0.04328 -0.04338,0.04542 -0.009,0.0075 -0.01231,0.0092 -0.0039,0.0037 0.01073,-0.0069 0.0258,-0.01565 0.04741,-0.02745 0.02368,-0.01289 0.04917,-0.026 0.07623,-0.03948 0.03434,-0.017 0.07237,-0.03301 0.113155,-0.0479 0.04644,-0.01696 0.09571,-0.03224 0.148089,-0.04671 0.05963,-0.01647 0.121595,-0.03146 0.186833,-0.04653 0.07888,-0.01821 0.161058,-0.0362 0.245597,-0.05618 0.08036,-0.01899 0.162575,-0.03974 0.245551,-0.06401 0.07604,-0.02224 0.152275,-0.04731 0.228078,-0.07636 0.07072,-0.0271 0.140336,-0.05741 0.208357,-0.09142 0.07126,-0.03562 0.139439,-0.07336 0.20438,-0.112331 0.06609,-0.03964 0.128773,-0.08054 0.187686,-0.121169 0.06475,-0.04464 0.126226,-0.08985 0.182877,-0.13266 0.106272,-0.0803 0.201444,-0.156093 0.290358,-0.222905 0.05364,-0.04032 0.10371,-0.07655 0.152558,-0.109848 0.0494,-0.03369 0.09674,-0.06383 0.142637,-0.09092 0.04581,-0.02706 0.09019,-0.0511 0.133005,-0.07251 a 0.43118467,0.43118467 90 0 0 -0.38561,-0.771352 c -0.0607,0.03034 -0.122735,0.06399 -0.185892,0.101294 -0.06333,0.03739 -0.126497,0.0777 -0.18997,0.120993 -0.06254,0.04264 -0.123706,0.08701 -0.184827,0.132957 -0.101472,0.07625 -0.197896,0.153037 -0.292174,0.224272 -0.05053,0.03819 -0.101324,0.07545 -0.152493,0.110721 -0.04636,0.03197 -0.09363,0.06273 -0.141827,0.09164 -0.04731,0.02839 -0.09611,0.05536 -0.146362,0.08048 -0.04085,0.02043 -0.08453,0.03957 -0.131335,0.0575 -0.05032,0.01929 -0.103883,0.03706 -0.161522,0.05392 -0.06329,0.01852 -0.129661,0.03541 -0.201855,0.05247 -0.07537,0.01782 -0.155857,0.03545 -0.241298,0.05518 -0.06965,0.01609 -0.145345,0.03426 -0.22242,0.05555 -0.06817,0.01884 -0.140486,0.04096 -0.21425,0.0679 -0.06515,0.02379 -0.132806,0.05186 -0.200861,0.08556 -0.03407,0.01696 -0.06935,0.03504 -0.105441,0.05468 -0.02937,0.01604 -0.06518,0.03618 -0.102544,0.06022 -0.01907,0.01236 -0.04875,0.03207 -0.0804,0.0583 -0.01465,0.01227 -0.04616,0.03905 -0.0778,0.07824 -0.01519,0.01913 -0.05391,0.06875 -0.07918,0.142819 -0.0176,0.05159 -0.03472,0.10385 -0.04053,0.158051 -0.0058,0.0542 6.7e-5,0.109985 0.02023,0.160631 0.02016,0.05065 0.05421,0.0952 0.09556,0.130715 0.04135,0.03552 0.08951,0.06203 0.137561,0.08778 0.04214,0.02258 0.07899,0.03387 0.09681,0.03892 0.03607,0.01008 0.06556,0.01439 0.07525,0.01583 0.0171,0.0026 0.0205,0.0031 0.0098,0.0012 -0.0042,-7.76e-4 -0.02666,-0.0033 -0.0684,-0.01907 -0.07409,-0.02808 -0.148976,-0.05806 -0.210529,-0.107944 -0.06155,-0.04989 -0.107837,-0.119962 -0.122729,-0.19778 -0.01489,-0.07782 0.0022,-0.160022 0.04097,-0.229142 0.03873,-0.06912 0.09715,-0.124729 0.155533,-0.178292 0.04315,-0.03959 0.07107,-0.05202 0.07146,-0.05224 0.01949,-0.01068 0.02514,-0.01255 0.02017,-0.01044 -0.0057,0.0024 -0.01559,0.0061 -0.03363,0.01265 -0.02469,0.0089 -0.0512,0.01793 -0.08027,0.0277 -0.05762,0.01941 -0.115344,0.03766 -0.173389,0.0548 -0.114326,0.03378 -0.230676,0.0636 -0.348868,0.09001 -0.126963,0.02837 -0.256038,0.0528 -0.387223,0.07433 -0.144824,0.02377 -0.29169,0.04392 -0.44126,0.06228 -0.230371,0.0283 -0.455507,0.05109 -0.695455,0.07791 -0.167657,0.01874 -0.338403,0.03905 -0.509986,0.06336 -0.14833,0.02101 -0.298048,0.04512 -0.448204,0.07383 -0.03464,0.0066 -0.07061,0.01384 -0.101433,0.01994 -0.01147,0.0022 -0.0239,0.0047 -0.03635,0.0071 -0.01123,0.0022 -0.02367,0.0046 -0.03611,0.007 -0.01123,0.0021 -0.02368,0.0045 -0.03612,0.0068 -0.01124,0.0021 -0.02369,0.0044 -0.03614,0.0067 -0.01125,0.0021 -0.0237,0.0044 -0.03615,0.0066 -0.01126,0.002 -0.02371,0.0043 -0.03616,0.0065 -0.01127,0.002 -0.02372,0.0042 -0.03618,0.0064 -0.01128,0.002 -0.02373,0.0042 -0.03619,0.0063 -0.01129,0.0019 -0.02375,0.0041 -0.0362,0.0062 -0.0113,0.0019 -0.02376,0.004 -0.03621,0.0061 -0.01131,0.0019 -0.02377,0.004 -0.03623,0.006 -0.01131,0.0019 -0.02378,0.0039 -0.03624,0.0059 -0.01132,0.0018 -0.02379,0.0038 -0.03625,0.0058 -0.01133,0.0018 -0.0238,0.0038 -0.03627,0.0057 -0.01134,0.0018 -0.02382,0.0037 -0.03628,0.0056 -0.01135,0.0017 -0.02383,0.0036 -0.03629,0.0055 -0.01136,0.0017 -0.02384,0.0036 -0.0363,0.0054 -0.01137,0.0017 -0.02385,0.0035 -0.03632,0.0054 -0.01138,0.0016 -0.02386,0.0035 -0.03633,0.0053 -0.01139,0.0016 -0.02387,0.0034 -0.03634,0.0052 -0.0114,0.0016 -0.02388,0.0033 -0.03636,0.0051 -0.01141,0.0016 -0.0239,0.0033 -0.03637,0.005 -0.01142,0.0015 -0.02391,0.0032 -0.03638,0.0049 -0.01143,0.0015 -0.02392,0.0031 -0.03639,0.0048 -0.01144,0.0015 -0.02393,0.0031 -0.03641,0.0047 -0.01145,0.0014 -0.02394,0.003 -0.03642,0.0046 -0.01145,0.0014 -0.02396,0.003 -0.03643,0.0045 -0.01146,0.0014 -0.02397,0.0029 -0.03644,0.0044 -0.01147,0.0014 -0.02398,0.0029 -0.03646,0.0043 -0.01148,0.0013 -0.02399,0.0028 -0.03647,0.0042 -0.01149,0.0013 -0.024,0.0027 -0.03648,0.0042 -0.0115,0.0013 -0.02402,0.0027 -0.03649,0.0041 -0.01151,0.0013 -0.02403,0.0026 -0.03651,0.004 -0.01152,0.0012 -0.02404,0.0026 -0.03652,0.0039 -0.01153,0.0012 -0.02405,0.0025 -0.03653,0.0038 -0.01154,0.0012 -0.02406,0.0024 -0.03654,0.0037 -0.01155,0.0011 -0.02408,0.0024 -0.03655,0.0036 -0.01157,0.0011 -0.02409,0.0023 -0.03657,0.0035 -0.01157,0.0011 -0.0241,0.0023 -0.03658,0.0035 -0.01159,0.0011 -0.02411,0.0022 -0.03659,0.0034 -0.0116,0.001 -0.02413,0.0022 -0.0366,0.0033 -0.01161,0.001 -0.02414,0.0021 -0.03661,0.0032 -0.01162,9.92e-4 -0.02415,0.0021 -0.03663,0.0031 -0.01163,9.66e-4 -0.02417,0.002 -0.03664,0.003 -0.01164,9.42e-4 -0.02418,0.002 -0.03665,0.003 -0.01165,9.17e-4 -0.02419,0.0019 -0.03666,0.0029 -0.01167,8.91e-4 -0.02421,0.0019 -0.03667,0.0028 -0.01168,8.66e-4 -0.02422,0.0018 -0.03669,0.0027 -0.01169,8.43e-4 -0.02424,0.0017 -0.0367,0.0026 -0.0117,8.18e-4 -0.02425,0.0017 -0.03671,0.0026 -0.01172,7.93e-4 -0.02426,0.0016 -0.03672,0.0025 -0.01173,7.7e-4 -0.02428,0.0016 -0.03673,0.0024 -0.01174,7.45e-4 -0.0243,0.0015 -0.03675,0.0023 -0.01176,7.21e-4 -0.02431,0.0015 -0.03676,0.0023 -0.01177,6.97e-4 -0.02433,0.0014 -0.03677,0.0022 -0.01179,6.74e-4 -0.02435,0.0014 -0.03678,0.0021 -0.01181,6.5e-4 -0.02436,0.0013 -0.03679,0.002 -0.01182,6.27e-4 -0.02438,0.0013 -0.0368,0.002 -0.01184,6.05e-4 -0.0244,0.0012 -0.03681,0.0019 -0.01186,5.82e-4 -0.02442,0.0012 -0.03683,0.0018 -0.01188,5.59e-4 -0.02445,0.0012 -0.03684,0.0017 -0.0119,5.36e-4 -0.02447,0.0011 -0.03685,0.0017 -0.01193,5.15e-4 -0.0245,0.0011 -0.03686,0.0016 -0.01196,4.92e-4 -0.02453,0.001 -0.03687,0.0015 -0.01199,4.71e-4 -0.02456,9.65e-4 -0.03688,0.0014 -0.01203,4.49e-4 -0.0246,9.2e-4 -0.03689,0.0014 -0.01207,4.28e-4 -0.02465,8.74e-4 -0.0369,0.0013 -0.01213,4.07e-4 -0.02471,8.3e-4 -0.03692,0.0012 -0.01219,3.87e-4 -0.02477,7.86e-4 -0.03692,0.0012 -0.01228,3.66e-4 -0.02487,7.42e-4 -0.03694,0.0011 -0.01241,3.47e-4 -0.025,7e-4 -0.03695,0.001 -0.0126,3.3e-4 -0.02519,6.6e-4 -0.03696,9.69e-4 -0.0048,1.16e-4 -0.01022,2.48e-4 -0.01543,3.76e-4 -0.0073,1.79e-4 -0.01451,3.54e-4 -0.02154,5.26e-4 -0.01234,2.79e-4 -0.02492,5.63e-4 -0.03698,8.36e-4 -0.01242,2.59e-4 -0.025,5.21e-4 -0.03699,7.72e-4 -0.38881,0.0078 -0.76408,0.0045 -1.114075,-0.0046 -0.421291,-0.01085 -0.827419,-0.03056 -1.197499,-0.05251 -0.503655,-0.02987 -1.003609,-0.0678 -1.431122,-0.101553 -0.731658,-0.05777 -1.131201,-0.09256 -1.741283,-0.137431 -0.507134,-0.03729 -0.91799,-0.06266 -1.290404,-0.08081 a 0.43118467,0.43118467 90 0 0 -0.04199,0.861346 z"
       id="path-1"
       inkscape:path-effect="#path-effect41;#path-effect42"
       inkscape:original-d="m 53.984322,72.352789 c 3.203885,0.156165 6.475636,0.722817 9.658537,0.08624 1.048657,-0.209732 2.060445,-0.169393 3.104529,-0.517422 0.516854,-0.172284 -0.216601,0.02206 0.344948,-0.25871 0.407031,-0.203516 0.917337,-0.199958 1.379791,-0.431185 0.508723,-0.254362 0.783935,-0.60756 1.293554,-0.862369"
       style="fill:#000000;fill-opacity:0;fill-rule:nonzero;stroke:none;stroke-width:1.89;stroke-dasharray:none;stroke-dashoffset:0;stroke-opacity:1"
       transform="matrix(1.2953795,0,0,1.2953795,-18.57161,-19.383183)" />
    <text
       xml:space="preserve"
       transform="scale(0.26458333)"
       id="text10"
       style="font-style:normal;font-variant:normal;font-weight:normal;font-stretch:normal;font-size:18.6667px;line-height:1;font-family:Calibri;-inkscape-font-specification:Calibri;white-space:pre;shape-inside:url(#rect10);display:inline;fill:#000000;fill-opacity:0;stroke:#000000;stroke-width:0.755906" />
    <text
       xml:space="preserve"
       style="font-style:italic;font-size:4.9389px;line-height:1;font-family:'Times New Roman';-inkscape-font-specification:'Times New Roman,  Italic';fill:#000000;fill-opacity:0;stroke:#000000;stroke-width:0.499999;stroke-miterlimit:3.9"
       x="110.00562"
       y="5.8539572"
       id="text3"><tspan
         sodipodi:role="line"
         id="tspan3"
         style="stroke-width:0.5"
         x="110.00562"
         y="5.8539572" /></text>
    <path
       style="fill:#000000;fill-opacity:0;stroke:#000000;stroke-width:0.200758;stroke-miterlimit:3.9;stroke-dasharray:none"
       id="path4"
       transform="matrix(0.83295585,0.55333945,-0.44711432,0.89447682,0,0)"
       sodipodi:type="arc"
       sodipodi:cx="88.361832"
       sodipodi:cy="4.4382434"
       sodipodi:rx="1.6691011"
       sodipodi:ry="1.6754729"
       sodipodi:start="3.4457055"
       sodipodi:end="0.76201866"
       sodipodi:open="true"
       sodipodi:arc-type="arc"
       d="m 86.769321,3.9365283 a 1.6691011,1.6754729 0 0 1 1.481013,-1.1700153 1.6691011,1.6754729 0 0 1 1.62317,0.9613956 1.6691011,1.6754729 0 0 1 -0.304171,1.8670532" />
    <ellipse
       style="fill:#000000;fill-opacity:0;stroke:#000000;stroke-width:0.200758;stroke-miterlimit:3.9;stroke-dasharray:none"
       id="path4-2"
       cx="87.96907"
       cy="5.082334"
       rx="1.6691011"
       ry="1.6754729"
       transform="matrix(0.83295585,0.55333945,-0.44711432,0.89447682,0,0)" />
    <ellipse
       style="fill:#000000;fill-opacity:0;stroke:#000000;stroke-width:0.200052;stroke-miterlimit:3.9;stroke-dasharray:none"
       id="path5-4"
       cx="18.874758"
       cy="107.23411"
       rx="2.0033507"
       ry="1.706966"
       transform="matrix(0.86294639,-0.50529548,0.53288463,0.84618791,0,0)" />
    <ellipse
       style="fill:#000000;fill-opacity:0;stroke:#000000;stroke-width:0.200052;stroke-miterlimit:3.9;stroke-dasharray:none"
       id="path5-4-8"
       cx="69.750145"
       cy="30.785795"
       rx="2.0033507"
       ry="1.706966"
       transform="matrix(0.72015489,0.69381332,-0.67020817,0.74217317,0,0)" />
    <path
       style="fill:#000000;fill-opacity:0;stroke:#000000;stroke-width:0.200052;stroke-miterlimit:3.9;stroke-dasharray:none"
       id="path5-4-8-9"
       transform="matrix(0.72015489,0.69381332,-0.67020817,0.74217317,0,0)"
       sodipodi:type="arc"
       sodipodi:cx="70.133484"
       sodipodi:cy="29.762217"
       sodipodi:rx="2.0752432"
       sodipodi:ry="1.706966"
       sodipodi:start="3.092557"
       sodipodi:end="0.65898426"
       sodipodi:arc-type="arc"
       d="m 68.060735,29.845885 a 2.0752432,1.706966 0 0 1 1.387284,-1.694829 2.0752432,1.706966 0 0 1 2.369357,0.6135 2.0752432,1.706966 0 0 1 -0.04317,2.04286"
       sodipodi:open="true" />
    <path
       style="fill:#000000;fill-opacity:0;stroke:#000000;stroke-width:0.20003;stroke-miterlimit:3.9;stroke-dasharray:none"
       id="path5-4-7"
       transform="matrix(-0.84829542,0.52952326,-0.5086159,-0.86099353,0,0)"
       sodipodi:type="arc"
       sodipodi:cx="-21.679169"
       sodipodi:cy="-107.21214"
       sodipodi:rx="1.959679"
       sodipodi:ry="1.6579236"
       sodipodi:start="5.8253009"
       sodipodi:end="3.0973778"
       sodipodi:open="true"
       sodipodi:arc-type="arc"
       d="m -19.921357,-107.94503 a 1.959679,1.6579236 0 0 1 -0.29386,1.83505 1.959679,1.6579236 0 0 1 -2.120239,0.46002 1.959679,1.6579236 0 0 1 -1.301476,-1.4889" />
    <path
       style="fill:#000000;fill-opacity:0;stroke:#1010bc;stroke-width:0.3;stroke-dasharray:none;stroke-dashoffset:0;stroke-opacity:1;marker-end:url(#marker19-1-9-0)"
       d="m 29.771197,71.271945 -4.732365,1.757398"
       id="path6-0-7-3"
       sodipodi:nodetypes="cc" />
    <path
       style="fill:#000000;fill-opacity:0;stroke:#1010bc;stroke-width:0.3;stroke-dasharray:none;stroke-dashoffset:0;stroke-opacity:1"
       d="m 58.720118,60.472088 12.22534,-7.220093"
       id="path6-0"
       sodipodi:nodetypes="cc" />
    <text
       xml:space="preserve"
       style="font-style:italic;font-size:4.9389px;line-height:1;font-family:'Times New Roman';-inkscape-font-specification:'Times New Roman,  Italic';fill:#1010bc;fill-opacity:1;stroke:#1010bc;stroke-width:0;stroke-miterlimit:3.9;stroke-dasharray:none;stroke-opacity:1"
       x="76.515182"
       y="88.602341"
       id="text7"><tspan
         id="tspan7"
         style="font-style:italic;font-variant:normal;font-weight:normal;font-stretch:normal;font-family:Calibri;-inkscape-font-specification:'Calibri Italic';fill:#1010bc;fill-opacity:1;stroke:#1010bc;stroke-width:0;stroke-dasharray:none;stroke-opacity:1"
         x="76.515182"
         y="88.602341"
         sodipodi:role="line">τ<tspan
   style="font-style:italic;font-variant:normal;font-weight:normal;font-stretch:normal;font-size:65%;font-family:Calibri;-inkscape-font-specification:'Calibri Italic';baseline-shift:sub;fill:#1010bc;fill-opacity:1;stroke:#1010bc;stroke-opacity:1"
   id="tspan8">w</tspan></tspan></text>
    <text
       xml:space="preserve"
       style="font-style:italic;font-variant:normal;font-weight:normal;font-stretch:normal;font-size:2.11667px;line-height:1;font-family:Calibri;-inkscape-font-specification:'Calibri Italic';fill:#1010bc;fill-opacity:1;stroke:#000000;stroke-width:0;stroke-miterlimit:3.9;stroke-dasharray:none;stroke-opacity:1"
       x="80.460533"
       y="90.240845"
       id="text11"><tspan
         sodipodi:role="line"
         id="tspan10"
         style="font-size:2.11667px;fill:#1010bc;fill-opacity:1;stroke-width:0"
         x="80.460533"
         y="90.240845">1</tspan></text>
    <text
       xml:space="preserve"
       style="font-style:italic;font-size:4.9389px;line-height:1;font-family:'Times New Roman';-inkscape-font-specification:'Times New Roman,  Italic';fill:#1010bc;fill-opacity:1;stroke:#1010bc;stroke-width:0;stroke-miterlimit:3.9;stroke-dasharray:none;stroke-opacity:1"
       x="60.588833"
       y="27.357201"
       id="text7-4"><tspan
         id="tspan7-6"
         style="font-style:italic;font-variant:normal;font-weight:normal;font-stretch:normal;font-family:Calibri;-inkscape-font-specification:'Calibri Italic';fill:#1010bc;fill-opacity:1;stroke:#1010bc;stroke-width:0;stroke-dasharray:none;stroke-opacity:1"
         x="60.588833"
         y="27.357201"
         sodipodi:role="line">τ<tspan
   style="font-style:italic;font-variant:normal;font-weight:normal;font-stretch:normal;font-size:65%;font-family:Calibri;-inkscape-font-specification:'Calibri Italic';baseline-shift:sub;fill:#1010bc;fill-opacity:1;stroke:#1010bc;stroke-opacity:1"
   id="tspan8-1">w</tspan></tspan></text>
    <text
       xml:space="preserve"
       style="font-style:italic;font-variant:normal;font-weight:normal;font-stretch:normal;font-size:2.11667px;line-height:1;font-family:Calibri;-inkscape-font-specification:'Calibri Italic';fill:#1010bc;fill-opacity:1;stroke:#000000;stroke-width:0;stroke-miterlimit:3.9;stroke-dasharray:none;stroke-opacity:1"
       x="64.53418"
       y="28.995705"
       id="text11-5"><tspan
         sodipodi:role="line"
         id="tspan10-3"
         style="font-size:2.11667px;fill:#1010bc;fill-opacity:1;stroke-width:0"
         x="64.53418"
         y="28.995705">4</tspan></text>
    <path
       style="fill:#000000;fill-opacity:0;stroke:#0f0fbd;stroke-width:0.3;stroke-dasharray:none;stroke-dashoffset:0;stroke-opacity:1"
       d="m 58.649528,60.483158 0.1483,-25.18809"
       id="path6-0-9"
       sodipodi:nodetypes="cc" />
    <path
       style="fill:#000000;fill-opacity:0;stroke:#0f0fbd;stroke-width:0.3;stroke-dasharray:none;stroke-dashoffset:0;stroke-opacity:1;marker-end:url(#marker19-1-0-7)"
       d="m 58.797138,33.115893 -4.4e-4,-5.710421"
       id="path6-0-9-0"
       sodipodi:nodetypes="cc" />
    <circle
       style="fill:#d41707;fill-opacity:1;stroke:#000000;stroke-width:0.414242;stroke-miterlimit:3.9;stroke-opacity:0"
       id="path7"
       cx="58.741291"
       cy="60.29834"
       r="0.75018501" />
    <text
       xml:space="preserve"
       style="font-style:italic;font-size:4.9389px;line-height:1;font-family:'Times New Roman';-inkscape-font-specification:'Times New Roman,  Italic';fill:#1010bc;fill-opacity:1;stroke:#1010bc;stroke-width:0;stroke-miterlimit:3.9;stroke-dasharray:none;stroke-opacity:1"
       x="75.999138"
       y="49.166779"
       id="text7-1"><tspan
         id="tspan7-5"
         style="font-style:italic;font-variant:normal;font-weight:normal;font-stretch:normal;font-family:Calibri;-inkscape-font-specification:'Calibri Italic';fill:#1010bc;fill-opacity:1;stroke:#1010bc;stroke-width:0;stroke-dasharray:none;stroke-opacity:1"
         x="75.999138"
         y="49.166779"
         sodipodi:role="line">τ<tspan
   style="font-style:italic;font-variant:normal;font-weight:normal;font-stretch:normal;font-size:65%;font-family:Calibri;-inkscape-font-specification:'Calibri Italic';baseline-shift:sub;fill:#1010bc;fill-opacity:1;stroke:#1010bc;stroke-opacity:1"
   id="tspan8-2">w</tspan></tspan></text>
    <text
       xml:space="preserve"
       style="font-style:italic;font-variant:normal;font-weight:normal;font-stretch:normal;font-size:2.11667px;line-height:1;font-family:Calibri;-inkscape-font-specification:'Calibri Italic';fill:#1010bc;fill-opacity:1;stroke:#000000;stroke-width:0;stroke-miterlimit:3.9;stroke-dasharray:none;stroke-opacity:1"
       x="79.944489"
       y="50.805283"
       id="text11-7"><tspan
         sodipodi:role="line"
         id="tspan10-2"
         style="font-size:2.11667px;fill:#1010bc;fill-opacity:1;stroke-width:0"
         x="79.944489"
         y="50.805283">3</tspan></text>
    <text
       xml:space="preserve"
       style="font-style:italic;font-size:4.9389px;line-height:1;font-family:'Times New Roman';-inkscape-font-specification:'Times New Roman,  Italic';fill:#1010bc;fill-opacity:1;stroke:#1010bc;stroke-width:0;stroke-miterlimit:3.9;stroke-dasharray:none;stroke-opacity:1"
       x="17.984617"
       y="75.304817"
       id="text7-11"><tspan
         id="tspan7-1"
         style="font-style:italic;font-variant:normal;font-weight:normal;font-stretch:normal;font-family:Calibri;-inkscape-font-specification:'Calibri Italic';fill:#1010bc;fill-opacity:1;stroke:#1010bc;stroke-width:0;stroke-dasharray:none;stroke-opacity:1"
         x="17.984617"
         y="75.304817"
         sodipodi:role="line">τ<tspan
   style="font-style:italic;font-variant:normal;font-weight:normal;font-stretch:normal;font-size:65%;font-family:Calibri;-inkscape-font-specification:'Calibri Italic';baseline-shift:sub;fill:#1010bc;fill-opacity:1;stroke:#1010bc;stroke-opacity:1"
   id="tspan8-14">w</tspan></tspan></text>
    <text
       xml:space="preserve"
       style="font-style:italic;font-variant:normal;font-weight:normal;font-stretch:normal;font-size:2.11667px;line-height:1;font-family:Calibri;-inkscape-font-specification:'Calibri Italic';fill:#1010bc;fill-opacity:1;stroke:#000000;stroke-width:0;stroke-miterlimit:3.9;stroke-dasharray:none;stroke-opacity:1"
       x="21.92996"
       y="76.943321"
       id="text11-3"><tspan
         sodipodi:role="line"
         id="tspan10-8"
         style="font-size:2.11667px;fill:#1010bc;fill-opacity:1;stroke-width:0"
         x="21.92996"
         y="76.943321">2</tspan></text>
    <ellipse
       style="fill:#1010bc;fill-opacity:0.00316455;stroke:#000000;stroke-width:0.2;stroke-miterlimit:3.9;stroke-dasharray:none;stroke-opacity:1"
       id="path12"
       cx="58.79678"
       cy="32.875927"
       rx="2.145978"
       ry="1.3262873" />
    <path
       style="fill:#1010bc;fill-opacity:0.00316455;stroke:#000000;stroke-width:0.2;stroke-miterlimit:3.9;stroke-dasharray:none;stroke-opacity:1"
       id="path12-8"
       sodipodi:type="arc"
       sodipodi:cx="58.825031"
       sodipodi:cy="33.947521"
       sodipodi:rx="2.145978"
       sodipodi:ry="1.3262873"
       sodipodi:start="6.1517706"
       sodipodi:end="3.1631006"
       sodipodi:arc-type="arc"
       d="m 60.952506,33.773729 a 2.145978,1.3262873 0 0 1 -0.90862,1.26539 2.145978,1.3262873 0 0 1 -2.236624,0.07604 2.145978,1.3262873 0 0 1 -1.127712,-1.196161"
       sodipodi:open="true" />
    <path
       style="fill:#1010bc;fill-opacity:0.00316455;stroke:#000000;stroke-width:0.2;stroke-miterlimit:3.9;stroke-dasharray:none;stroke-opacity:1"
       d="m 60.926398,34.30074 0.0431,-1.487588"
       id="path14" />
    <path
       style="fill:#1010bc;fill-opacity:0.00316455;stroke:#000000;stroke-width:0.2;stroke-miterlimit:3.9;stroke-dasharray:none;stroke-opacity:1"
       d="m 56.636108,32.920949 0.0216,1.293553"
       id="path16" />
    <path
       style="fill:#1010bc;fill-opacity:0.00316455;stroke:#000000;stroke-width:0.3;stroke-miterlimit:3.9;stroke-opacity:1;stroke-dasharray:none"
       d="m 53.208187,62.521776 c 0,0 -1.466025,-6.036585 5.432927,-8.364981"
       id="path2"
       sodipodi:nodetypes="cc" />
    <path
       style="fill:#1010bc;fill-opacity:0.00316455;stroke:#000000;stroke-width:0.3;stroke-miterlimit:3.9;stroke-dasharray:none;stroke-opacity:1"
       d="m 54.02744,62.198389 c 0,0 3.729746,4.764591 9.938805,1.034844"
       id="path3" />
  </g>
</svg>
